<svg width="727" height="434" viewBox="0 0 727 434" fill="none" xmlns="http://www.w3.org/2000/svg">
<rect x="496.402" y="405" width="205.598" height="20" rx="5" fill="#00E1FB"/>
<rect x="254.7" y="405" width="205.598" height="20" rx="5" fill="#00E1FB"/>
<rect x="14" y="405" width="205.598" height="20" rx="5" fill="#00E1FB"/>
<path d="M166.693 358.056C166.693 360.043 166.339 361.888 165.629 363.591C164.919 365.294 163.926 366.784 162.648 368.062C161.442 369.268 159.987 370.226 158.284 370.936C156.581 371.645 154.736 372 152.749 372H52.9033C50.3486 372 47.5811 371.716 44.6006 371.148C41.6911 370.51 38.7816 369.552 35.8721 368.274C33.0335 366.997 30.3014 365.365 27.6758 363.378C25.0501 361.32 22.7083 358.872 20.6504 356.033C18.6634 353.124 17.0667 349.788 15.8604 346.027C14.654 342.195 14.0508 337.902 14.0508 333.147V258.21C14.0508 255.655 14.3346 252.923 14.9023 250.014C15.541 247.033 16.499 244.124 17.7764 241.285C19.0537 238.376 20.7214 235.608 22.7793 232.982C24.8372 230.357 27.2855 228.05 30.124 226.063C33.0335 224.006 36.3688 222.373 40.1299 221.167C43.891 219.961 48.1488 219.357 52.9033 219.357H165.416V247.033H52.9033C49.2842 247.033 46.5166 247.991 44.6006 249.907C42.6846 251.823 41.7266 254.662 41.7266 258.423V333.147C41.7266 336.696 42.6846 339.463 44.6006 341.45C46.5876 343.366 49.3551 344.324 52.9033 344.324H139.018V309.623H65.3574V281.734H152.749C154.736 281.734 156.581 282.125 158.284 282.905C159.987 283.615 161.442 284.608 162.648 285.886C163.926 287.163 164.919 288.653 165.629 290.356C166.339 291.989 166.693 293.763 166.693 295.679V358.056ZM265.262 273.857L311.885 219.357H349.673L283.996 295.892L349.247 372H311.672L265.262 317.926L219.064 372H181.383L246.527 295.892L181.17 219.357H218.639L265.262 273.857ZM537.442 308.133C537.442 314.378 536.626 320.303 534.994 325.909C533.433 331.444 531.198 336.589 528.288 341.344C525.379 346.098 521.937 350.356 517.963 354.117C513.989 357.878 509.625 361.107 504.87 363.804C500.187 366.429 495.184 368.452 489.861 369.871C484.539 371.29 479.11 372 473.575 372H423.652C418.046 372 412.582 371.29 407.26 369.871C401.938 368.452 396.899 366.429 392.145 363.804C387.461 361.107 383.132 357.878 379.158 354.117C375.184 350.356 371.743 346.098 368.833 341.344C365.994 336.589 363.759 331.444 362.127 325.909C360.566 320.303 359.785 314.378 359.785 308.133V283.225C359.785 273.857 361.524 265.271 365.001 257.465C368.549 249.659 373.268 242.953 379.158 237.347C385.048 231.67 391.825 227.27 399.489 224.147C407.224 220.954 415.279 219.357 423.652 219.357H473.575C479.11 219.357 484.539 220.067 489.861 221.486C495.184 222.906 500.187 224.964 504.87 227.66C509.625 230.286 513.989 233.479 517.963 237.24C521.937 241.001 525.379 245.259 528.288 250.014C531.198 254.768 533.433 259.949 534.994 265.555C536.626 271.09 537.442 276.98 537.442 283.225V308.133ZM509.554 283.225C509.554 277.76 508.56 272.793 506.573 268.322C504.586 263.852 501.925 260.02 498.59 256.826C495.326 253.633 491.529 251.185 487.2 249.481C482.871 247.778 478.33 246.962 473.575 247.033H423.652C419.04 246.962 414.534 247.778 410.134 249.481C405.805 251.114 401.938 253.526 398.531 256.72C395.196 259.842 392.499 263.674 390.441 268.216C388.454 272.687 387.461 277.689 387.461 283.225V308.133C387.461 313.668 388.454 318.671 390.441 323.142C392.428 327.612 395.09 331.444 398.425 334.638C401.76 337.76 405.592 340.173 409.921 341.876C414.321 343.579 418.898 344.395 423.652 344.324H473.575C479.039 344.324 483.971 343.437 488.371 341.663C492.842 339.818 496.638 337.299 499.761 334.105C502.883 330.912 505.296 327.116 506.999 322.716C508.702 318.245 509.554 313.384 509.554 308.133V283.225ZM497.525 263C498.59 264.561 499.299 266.264 499.654 268.109C500.009 269.883 500.009 271.658 499.654 273.432C499.299 275.135 498.59 276.767 497.525 278.328C496.532 279.818 495.219 281.096 493.587 282.16L418.862 332.083C417.656 333.006 416.414 333.644 415.137 333.999C413.859 334.354 412.547 334.531 411.198 334.531C408.927 334.531 406.763 333.999 404.705 332.935C402.647 331.87 400.979 330.344 399.702 328.357C398.638 326.796 397.928 325.129 397.573 323.354C397.218 321.509 397.183 319.735 397.467 318.032C397.822 316.258 398.496 314.626 399.489 313.136C400.483 311.575 401.796 310.262 403.428 309.197L478.365 259.274C479.926 258.21 481.594 257.5 483.368 257.146C485.213 256.791 486.987 256.791 488.69 257.146C490.465 257.5 492.097 258.174 493.587 259.168C495.148 260.161 496.461 261.439 497.525 263ZM701.155 372H673.267V309.623H574.911C572.924 309.623 571.079 309.268 569.376 308.559C567.673 307.778 566.183 306.785 564.905 305.578C563.699 304.301 562.741 302.811 562.031 301.107C561.322 299.404 560.967 297.595 560.967 295.679V219.357H588.643V281.734H673.267V219.357H701.155V372Z" fill="#00E1FB"/>
<path d="M30.2562 131.089H88.2994V93.8346H104.829V185H88.2994V147.746H30.2562V185H13.7269V93.8346H30.2562V131.089ZM199.173 147.746H146.978V131.089H199.173V147.746ZM206.611 185H146.978C144.69 185 142.189 184.597 139.477 183.792C136.764 182.987 134.242 181.673 131.911 179.85C129.623 177.986 127.694 175.591 126.126 172.667C124.6 169.7 123.837 166.076 123.837 161.795V102.163C123.837 101.018 124.049 99.9377 124.473 98.9205C124.897 97.9033 125.469 97.0133 126.19 96.2504C126.953 95.4875 127.843 94.8941 128.86 94.4703C129.877 94.0465 130.979 93.8346 132.166 93.8346H206.611V110.364H140.367V161.795C140.367 163.957 140.939 165.61 142.083 166.754C143.228 167.899 144.902 168.471 147.106 168.471H206.611V185ZM306.359 185H230.96C229.773 185 228.671 184.788 227.654 184.364C226.637 183.94 225.747 183.368 224.984 182.648C224.263 181.885 223.691 180.995 223.267 179.978C222.844 178.96 222.632 177.858 222.632 176.672V93.8346H239.161V168.471H306.359V185ZM400.131 185H340.498C338.973 185 337.32 184.83 335.54 184.491C333.802 184.11 332.064 183.538 330.326 182.775C328.631 182.012 326.999 181.037 325.431 179.85C323.863 178.621 322.464 177.159 321.235 175.464C320.049 173.726 319.095 171.734 318.375 169.488C317.654 167.199 317.294 164.635 317.294 161.795V117.039C317.294 115.513 317.463 113.882 317.802 112.144C318.184 110.364 318.756 108.626 319.519 106.931C320.282 105.193 321.278 103.54 322.507 101.972C323.736 100.404 325.198 99.0265 326.893 97.8397C328.631 96.6106 330.623 95.6358 332.869 94.9153C335.116 94.1948 337.659 93.8346 340.498 93.8346H400.131V110.364H340.498C338.337 110.364 336.684 110.936 335.54 112.08C334.395 113.225 333.823 114.92 333.823 117.166V161.795C333.823 163.915 334.395 165.567 335.54 166.754C336.726 167.899 338.379 168.471 340.498 168.471H400.131V185ZM505.219 185H488.69V162.622H430.583V185H414.054V139.417C414.054 132.763 415.198 126.639 417.487 121.044C419.775 115.45 422.954 110.639 427.023 106.613C431.092 102.587 435.902 99.4503 441.454 97.204C447.006 94.9577 453.067 93.8346 459.636 93.8346H496.891C498.035 93.8346 499.116 94.0465 500.133 94.4703C501.15 94.8941 502.04 95.4875 502.803 96.2504C503.566 97.0133 504.16 97.9033 504.583 98.9205C505.007 99.9377 505.219 101.018 505.219 102.163V185ZM430.583 146.093H488.69V110.364H459.636C459.128 110.364 458.047 110.449 456.394 110.618C454.784 110.745 452.898 111.106 450.736 111.699C448.617 112.292 446.371 113.204 443.997 114.433C441.624 115.662 439.441 117.357 437.449 119.519C435.457 121.68 433.804 124.393 432.49 127.656C431.219 130.877 430.583 134.798 430.583 139.417V146.093ZM606.874 110.364H570.446V185H553.917V110.364H517.425V93.8346H606.874V110.364ZM694.035 147.746H641.84V131.089H694.035V147.746ZM701.473 185H641.84C639.551 185 637.051 184.597 634.338 183.792C631.626 182.987 629.104 181.673 626.773 179.85C624.484 177.986 622.556 175.591 620.988 172.667C619.462 169.7 618.699 166.076 618.699 161.795V102.163C618.699 101.018 618.911 99.9377 619.335 98.9205C619.759 97.9033 620.331 97.0133 621.051 96.2504C621.814 95.4875 622.704 94.8941 623.721 94.4703C624.739 94.0465 625.841 93.8346 627.027 93.8346H701.473V110.364H635.228V161.795C635.228 163.957 635.801 165.61 636.945 166.754C638.089 167.899 639.763 168.471 641.967 168.471H701.473V185Z" fill="#D2FAFF"/>
<path d="M65.875 64H57.6875V37.3125L43.2812 62.6562C42.9271 63.3021 42.4271 63.7917 41.7812 64.125C41.1562 64.4583 40.4792 64.625 39.75 64.625C39.0417 64.625 38.375 64.4583 37.75 64.125C37.1458 63.7917 36.6667 63.3021 36.3125 62.6562L21.8438 37.3125V64H13.7188V22.6562C13.7188 21.7188 13.9896 20.8854 14.5312 20.1562C15.0938 19.4271 15.8229 18.9375 16.7188 18.6875C17.1562 18.5833 17.5938 18.5521 18.0312 18.5938C18.4688 18.6146 18.8854 18.7083 19.2812 18.875C19.6979 19.0208 20.0729 19.2396 20.4062 19.5312C20.7396 19.8021 21.0208 20.1354 21.25 20.5312L39.75 52.6875L58.25 20.5312C58.7292 19.7396 59.3854 19.1771 60.2188 18.8438C61.0729 18.5104 61.9583 18.4583 62.875 18.6875C63.75 18.9375 64.4688 19.4271 65.0312 20.1562C65.5938 20.8854 65.875 21.7188 65.875 22.6562V64ZM112.188 45.6875H86.5312V37.5H112.188V45.6875ZM115.844 64H86.5312C85.4062 64 84.1771 63.8021 82.8438 63.4062C81.5104 63.0104 80.2708 62.3646 79.125 61.4688C78 60.5521 77.0521 59.375 76.2812 57.9375C75.5312 56.4792 75.1562 54.6979 75.1562 52.5938V23.2812C75.1562 22.7188 75.2604 22.1875 75.4688 21.6875C75.6771 21.1875 75.9583 20.75 76.3125 20.375C76.6875 20 77.125 19.7083 77.625 19.5C78.125 19.2917 78.6667 19.1875 79.25 19.1875H115.844V27.3125H83.2812V52.5938C83.2812 53.6562 83.5625 54.4688 84.125 55.0312C84.6875 55.5938 85.5104 55.875 86.5938 55.875H115.844V64ZM160.562 45.6875H134.906V37.5H160.562V45.6875ZM164.219 64H134.906C133.781 64 132.552 63.8021 131.219 63.4062C129.885 63.0104 128.646 62.3646 127.5 61.4688C126.375 60.5521 125.427 59.375 124.656 57.9375C123.906 56.4792 123.531 54.6979 123.531 52.5938V23.2812C123.531 22.7188 123.635 22.1875 123.844 21.6875C124.052 21.1875 124.333 20.75 124.688 20.375C125.062 20 125.5 19.7083 126 19.5C126.5 19.2917 127.042 19.1875 127.625 19.1875H164.219V27.3125H131.656V52.5938C131.656 53.6562 131.938 54.4688 132.5 55.0312C133.062 55.5938 133.885 55.875 134.969 55.875H164.219V64ZM212.594 27.3125H194.688V64H186.562V27.3125H168.625V19.1875H212.594V27.3125Z" fill="#D2FAFF"/>
</svg>
